<?xml version="1.0" encoding="UTF-8"?>
<svg version="1.1" xmlns="http://www.w3.org/2000/svg" width="540" height="540">
<path d="M0 0 C178.2 0 356.4 0 540 0 C540 178.2 540 356.4 540 540 C361.8 540 183.6 540 0 540 C0 361.8 0 183.6 0 0 Z " fill="#0073CF" transform="translate(0,0)"/>
<path d="M0 0 C62.7 0 125.4 0 190 0 C190 178.2 190 356.4 190 540 C140 540 140 540 122.8125 526 C119.10568009 521.53853794 115.57889196 517.25352748 112.18756104 512.59912109 C107.98378981 506.93849478 103.03786142 501.9118523 98 497 C94.07026335 493.11831306 90.28269322 489.18866516 86.69921875 484.98046875 C84.71969568 482.67330048 82.6735788 480.43353218 80.625 478.1875 C76.70744578 473.84570979 72.98063334 469.37926529 69.3046875 464.83203125 C66.96790306 461.96055884 64.58037427 459.13731484 62.1875 456.3125 C19.09305825 404.44078298 -9.21002881 345.30266473 -3.72021484 276.49316406 C-2.76758477 267.51919349 -0.99542247 258.78997483 1 250 C1.40798828 248.12441406 1.40798828 248.12441406 1.82421875 246.2109375 C3.92727827 236.86612097 6.52144209 227.74790185 9.35546875 218.59912109 C11.88121246 210.44329954 14.22557499 202.25117911 16.45458984 194.00976562 C16.96908191 192.11392916 17.49397727 190.22092478 18.01953125 188.328125 C36.0220209 122.62979624 23.75625294 66.2303605 0.79101562 3.28710938 C0 1 0 1 0 0 Z " fill="#FEFEFE" transform="translate(350,0)"/>
</svg>
