<?xml version="1.0" encoding="UTF-8"?>
<svg version="1.1" xmlns="http://www.w3.org/2000/svg" width="540" height="540">
<path d="M0 0 C178.2 0 356.4 0 540 0 C540 178.2 540 356.4 540 540 C361.8 540 183.6 540 0 540 C0 361.8 0 183.6 0 0 Z " fill="#0073CF" transform="translate(0,0)"/>
<path d="M0 0 C178.2 0 356.4 0 540 0 C540 178.2 540 356.4 540 540 C539.67 540 539.34 540 539 540 C539 362.13 539 184.26 539 1 C366.245 1.495 366.245 1.495 190 2 C188.68 5.96 187.36 9.92 186 14 C183.9609375 19.0859375 183.9609375 19.0859375 182.95996094 21.53808594 C170.12200502 54.46228418 163.52213935 90.19846098 163.5625 125.4375 C163.56227844 126.33884674 163.56205688 127.24019348 163.56182861 128.16885376 C163.60422811 144.31070951 164.96608726 159.91586019 168.5625 175.6875 C168.81789551 176.82340576 169.07329102 177.95931152 169.33642578 179.12963867 C171.6460833 189.07689827 174.53370629 198.81623288 177.53027344 208.57470703 C189.04076398 246.09271048 198.63574859 283.56111686 192 323 C191.80217046 324.32403779 191.60559014 325.64826273 191.41015625 326.97265625 C184.44250643 372.11766737 162.59998213 413.80389523 134 449 C133.2678125 449.91136719 132.535625 450.82273437 131.78125 451.76171875 C126.44358768 458.34922102 120.96516402 464.81916323 115.46777344 471.2734375 C113.94552924 473.06407472 112.42966056 474.85998563 110.9140625 476.65625 C106.05679157 482.39298597 101.18241421 487.9805556 95.78515625 493.22265625 C93.35321427 495.64395516 91.13253547 498.2211408 88.8984375 500.82421875 C86.73254995 503.30652198 84.49123043 505.71055145 82.25 508.125 C78.90933238 511.75924144 75.84645552 515.46291134 72.88549805 519.41015625 C64.63845997 530.36164152 55.41797275 536.64550681 42 540 C28.14 540 14.28 540 0 540 C0 361.8 0 183.6 0 0 Z " fill="#FCFDFD" transform="translate(0,0)"/>
</svg>
